<svg xmlns="http://www.w3.org/2000/svg" viewBox="0 0 85.91 91.22"><defs><style>.cls-1{fill:#efefef;stroke:#c7cdc7;stroke-miterlimit:10;stroke-width:0.5px;}</style></defs><title>man</title><g id="Слой_2" data-name="Слой 2"><g id="multi"><path class="cls-1" d="M82.37,73.79c-8.77-7-19.62-2.85-26.06-11.25a9.56,9.56,0,0,1-1.73-6.72c.41-2.49,2.18-3.92,3.44-6,2-3.27,2.73-7.18,3.61-10.55,0,.56.73,1.83,1.52,1.66,2-.41,4-11.66,2.92-12.51-1.37-.31-2.33.6-3.42,1.19a24.79,24.79,0,0,0,1-7,27.4,27.4,0,0,0-.74-9.16,17.65,17.65,0,0,0-3-5.51A18.4,18.4,0,0,0,48,.83a22,22,0,0,0-6.32-.5,8.24,8.24,0,0,0-5.78,3.24c-1.38-.88-3.59-.57-5.33.09-10.92,4.16-11,17.67-8.78,26.19-4.33-2.11-2.72,6.63-1.71,8.45.75,1.35,2.84,4.42,3.11,1.48,1.26,1.73,1.45,4,2.42,5.81s2.19,3.34,3.16,5.07c2.17,3.89,3.91,7.87.84,11.88-6.43,8.4-17.28,4.29-26,11.25C-1.19,77.54.57,91,.57,91H85.34S87.1,77.54,82.37,73.79Z"/></g></g></svg>