<svg xmlns="http://www.w3.org/2000/svg" viewBox="0 0 85.91 96.52"><defs><style>.cls-1{fill:#efefef;stroke:#c7cdc7;stroke-miterlimit:10;stroke-width:0.5px;}</style></defs><title>woman_1</title><g id="Слой_2" data-name="Слой 2"><g id="multi"><path class="cls-1" d="M82.37,79.09c-7-5.58-28.41-4-29.39-16.51,8.22,2.14,17.61,5.64,22.73-3.73-1.87.66-3.77-.63-5.19-1.77S71.83,42.59,72,40.51c.45-6.28,2.7-15.43.69-21.41A24.42,24.42,0,0,0,64.16,7.48,40.5,40.5,0,0,0,51.83,1.07,13.61,13.61,0,0,0,44.57.54c-1.22.32-5.82,4.24-6.25,4.14a18.8,18.8,0,0,0-7.53-.54c-7,1.13-14,9.67-15.93,16-2.29,7.48-2.61,15,.45,22.19,2.34,5.47,2.88,12.52-3.72,15.1,1,.93,1.49,2.38,2.49,3.26C18.53,64.55,26.85,63,32,61.7,33.9,75.84,10.5,73.57,3.54,79.09c-4.73,3.75-3,17.18-3,17.18H85.34S87.1,82.85,82.37,79.09Z"/></g></g></svg>