<svg width="16" height="16" viewBox="0 0 16 16" fill="none" xmlns="http://www.w3.org/2000/svg">
<path d="M9.33909 1.77357C8.83713 1.92741 8.20968 2.1428 7.9587 2.20434C7.2685 2.41972 8.55478 3.18896 9.99791 3.43512C10.9705 3.58896 11.3469 3.49666 11.7861 3.00434C12.2881 2.45049 12.2881 2.38895 11.8175 1.98895C11.1587 1.46588 10.4999 1.40434 9.33909 1.77357Z" fill="#6A9470"/>
<path d="M9.16596 1.08843C9.34607 0.902961 9.56571 0.661737 9.65945 0.575266C9.90622 0.318684 9.16593 0.320506 8.48317 0.57357C8.02591 0.749017 7.8853 0.878727 7.81336 1.18656C7.72906 1.5348 7.74381 1.55984 8.04304 1.60742C8.45311 1.65901 8.75262 1.5228 9.16596 1.08843Z" fill="#6A9470"/>
<path d="M5.54297 3.8351C5.00964 4.1428 4.2567 4.85049 3.88023 5.37357C3.31552 6.1428 3.25278 6.41972 3.53513 6.97357C3.84885 7.49664 4.09983 7.58895 4.85278 7.4351C5.38611 7.3428 5.91944 7.25049 6.07631 7.25049C6.23317 7.25049 6.20179 6.97357 5.98219 6.6351C5.66846 6.17357 5.66846 5.95818 5.95082 5.68126C6.45278 5.18895 7.33121 5.55818 7.51944 6.35818C7.67631 6.9428 7.86454 7.00433 9.2763 6.85049C11.4724 6.57357 12.3508 5.71203 11.2528 4.81972C10.6881 4.35818 7.64493 3.25049 6.98611 3.25049C6.73513 3.25049 6.0763 3.52741 5.54297 3.8351Z" fill="#6A9470"/>
<path d="M8.7744 7.77338C8.24107 8.26569 8.64891 10.1118 9.8097 12.4195C10.4685 13.8041 10.9391 14.9426 10.7822 14.9426C10.6568 14.9426 10.0921 14.3272 9.52734 13.558C8.99401 12.8195 8.39793 12.1118 8.24107 12.0195C7.95872 11.8349 7.11166 13.4349 6.54695 15.158C6.32734 15.8349 6.39009 15.8657 8.2097 15.8657C11.0646 15.8657 13.1666 15.2811 14.045 14.2657C14.7352 13.4657 15.7705 10.7888 15.7705 9.86569C15.7705 9.09646 14.5156 8.4503 12.194 8.01953C9.43323 7.49646 9.05676 7.46569 8.7744 7.77338Z" fill="#6A9470"/>
<path d="M3.37829 8.81966C2.343 9.12735 1.27633 9.58889 0.993976 9.80427C-0.857004 11.2197 -0.104063 13.0043 3.09594 14.6966C4.28809 15.3427 5.35476 15.8658 5.44888 15.8658C5.7626 15.8658 6.67241 12.0197 6.67241 10.6966C6.67241 9.92735 6.4528 9.2812 6.04496 8.85043C5.66849 8.4812 5.35476 8.1735 5.32339 8.20427C5.29202 8.20427 4.41358 8.4812 3.37829 8.81966Z" fill="#6A9470"/>
</svg>
